<svg width="64" height="64" viewBox="0 0 64 64" fill="none" xmlns="http://www.w3.org/2000/svg">
  <defs>
    <linearGradient id="nexus-gradient" x1="0%" y1="0%" x2="100%" y2="100%">
      <stop offset="0%" style="stop-color:#6366f1;stop-opacity:1" />
      <stop offset="50%" style="stop-color:#8b5cf6;stop-opacity:1" />
      <stop offset="100%" style="stop-color:#06b6d4;stop-opacity:1" />
    </linearGradient>
    <filter id="glow">
      <feGaussianBlur stdDeviation="3" result="coloredBlur"/>
      <feMerge> 
        <feMergeNode in="coloredBlur"/>
        <feMergeNode in="SourceGraphic"/>
      </feMerge>
    </filter>
  </defs>
  
  <!-- Outer ring -->
  <circle cx="32" cy="32" r="28" fill="none" stroke="url(#nexus-gradient)" stroke-width="3" opacity="0.7" filter="url(#glow)"/>
  
  <!-- Inner geometric pattern -->
  <polygon points="32,12 44,20 44,36 32,44 20,36 20,20" fill="url(#nexus-gradient)" opacity="0.8"/>
  
  <!-- Center hexagon -->
  <polygon points="32,18 38,22 38,30 32,34 26,30 26,22" fill="white" opacity="0.9"/>
  
  <!-- Central dot -->
  <circle cx="32" cy="26" r="3" fill="url(#nexus-gradient)"/>
  
  <!-- Connection lines -->
  <line x1="32" y1="12" x2="32" y2="18" stroke="white" stroke-width="2" opacity="0.7"/>
  <line x1="44" y1="20" x2="38" y2="22" stroke="white" stroke-width="2" opacity="0.7"/>
  <line x1="44" y1="36" x2="38" y2="30" stroke="white" stroke-width="2" opacity="0.7"/>
  <line x1="32" y1="44" x2="32" y2="34" stroke="white" stroke-width="2" opacity="0.7"/>
  <line x1="20" y1="36" x2="26" y2="30" stroke="white" stroke-width="2" opacity="0.7"/>
  <line x1="20" y1="20" x2="26" y2="22" stroke="white" stroke-width="2" opacity="0.7"/>
</svg>
